<?xml version="1.0" standalone="no"?>
<!DOCTYPE svg PUBLIC "-//W3C//DTD SVG 20010904//EN"
 "http://www.w3.org/TR/2001/REC-SVG-20010904/DTD/svg10.dtd">
<svg version="1.0" xmlns="http://www.w3.org/2000/svg"
 width="211.000000pt" height="337.000000pt" viewBox="0 0 211.000000 337.000000"
 preserveAspectRatio="xMidYMid meet">

<g transform="translate(0.000000,337.000000) scale(0.100000,-0.100000)"
fill="#000000" stroke="none">
<path d="M800 3314 c-14 -3 -49 -14 -79 -25 -128 -47 -201 -113 -220 -200 -7
-30 -19 -81 -27 -114 -18 -79 -13 -275 8 -326 15 -35 15 -38 -14 -99 -31 -63
-46 -156 -34 -203 8 -33 56 -53 94 -39 15 6 38 12 52 14 19 2 25 9 25 28 0 24
-2 25 -59 21 l-59 -3 6 53 c9 72 19 79 56 38 17 -18 31 -37 31 -41 0 -5 6 -8
13 -8 24 -1 59 -48 52 -70 -15 -47 56 -60 210 -40 78 10 105 1 106 -33 0 -14
19 -36 52 -63 37 -28 60 -57 80 -100 75 -157 67 -146 132 -171 32 -13 69 -23
81 -23 12 0 24 -5 26 -11 2 -7 22 -3 56 10 63 25 57 25 77 5 18 -18 25 -17
188 23 78 19 202 24 259 11 38 -9 53 -9 73 2 37 20 42 4 9 -31 -41 -43 -115
-75 -218 -94 -143 -27 -161 -38 -223 -135 -20 -30 -42 -63 -51 -73 -9 -10 -17
-35 -17 -55 -1 -20 -8 -104 -15 -185 -11 -119 -12 -169 -2 -255 7 -60 12 -173
12 -252 0 -133 2 -149 24 -195 14 -27 56 -83 95 -124 39 -41 71 -77 71 -80 0
-12 -69 -52 -120 -72 -41 -16 -88 -21 -217 -26 -197 -7 -317 9 -463 65 -145
56 -157 71 -250 297 -34 84 -43 122 -56 235 -28 237 4 565 71 723 13 32 14 41
2 65 -17 32 -35 110 -41 172 -4 45 9 131 40 266 12 55 13 77 5 93 -17 31 -29
26 -41 -19 -5 -22 -14 -57 -20 -79 -5 -21 -10 -52 -10 -69 0 -17 -4 -42 -9
-55 -9 -24 -13 -25 -117 -26 -59 -1 -127 -6 -150 -11 -24 -6 -49 -8 -56 -5 -8
3 -31 -13 -53 -35 -21 -22 -44 -40 -51 -40 -6 0 -23 -12 -38 -26 -22 -23 -26
-36 -26 -83 0 -65 24 -112 67 -134 15 -8 63 -17 106 -19 49 -3 83 -11 95 -20
30 -27 136 -80 172 -87 24 -5 34 -12 31 -22 -2 -8 -10 -84 -18 -169 -26 -280
-2 -540 63 -687 8 -17 14 -36 14 -42 0 -6 8 -25 18 -43 10 -18 23 -47 29 -64
11 -31 10 -32 -58 -88 -38 -31 -69 -62 -69 -69 0 -24 38 -50 65 -45 28 6 32
-6 14 -46 -17 -36 -4 -76 24 -76 13 0 28 5 34 11 7 7 18 3 37 -15 25 -26 26
-26 63 -11 45 18 125 100 121 122 -5 24 -39 42 -46 24 -7 -20 -73 -91 -84 -91
-6 0 -7 13 -3 31 9 40 -10 54 -43 33 -13 -9 -26 -13 -29 -10 -8 8 27 46 42 46
7 0 18 7 25 15 10 13 10 19 -4 34 -16 17 -21 18 -62 5 -53 -16 -56 -7 -8 24
l35 23 38 -31 c36 -28 128 -66 228 -94 23 -6 44 -14 47 -17 3 -3 -10 -44 -29
-92 -39 -96 -42 -119 -20 -137 13 -10 23 -10 55 5 22 10 45 24 51 32 17 20 29
16 29 -12 0 -32 34 -67 57 -58 10 3 25 15 34 26 18 22 39 16 39 -12 0 -21 37
-71 52 -71 21 0 77 71 107 135 32 68 38 112 20 147 -6 11 -9 21 -7 23 2 2 36
6 76 10 71 6 186 47 222 80 13 12 21 12 55 0 40 -14 199 -20 229 -9 17 7 22
49 7 59 -5 3 -9 18 -9 33 0 15 -15 49 -35 79 -19 29 -38 67 -42 85 -4 18 -11
38 -15 43 -12 17 -42 98 -52 140 -23 98 -28 162 -28 335 0 148 -4 204 -20 280
-11 52 -29 136 -39 185 -10 50 -21 97 -25 106 -5 12 6 18 61 28 163 30 280 98
284 166 6 77 0 97 -41 137 -39 37 -43 38 -110 38 -40 0 -117 -11 -179 -26
-137 -32 -155 -30 -159 14 -2 18 -10 36 -17 38 -8 3 -35 56 -60 117 -26 62
-55 118 -64 124 -16 12 -16 18 2 100 30 139 32 242 7 361 -35 166 -101 289
-202 375 -49 41 -68 52 -153 86 -30 13 -251 24 -295 15z m-272 -429 c-3 -3 -9
2 -12 12 -6 14 -5 15 5 6 7 -7 10 -15 7 -18z m489 -9 c83 -29 87 -37 91 -191
l3 -132 -57 -52 c-32 -28 -62 -51 -66 -51 -5 0 -28 -9 -50 -20 -23 -11 -47
-20 -54 -20 -6 0 -24 -6 -39 -14 -27 -14 -147 -32 -162 -25 -5 2 -7 7 -5 12 1
4 -7 26 -19 48 -11 23 -18 43 -16 46 3 2 21 -3 42 -11 53 -23 88 -3 104 58 16
66 14 92 -19 186 -36 105 -37 121 -3 160 l27 32 85 -4 c47 -3 109 -13 138 -22z
m-417 -228 c0 -18 -23 -2 -32 22 -9 23 -8 23 12 5 11 -10 20 -22 20 -27z m485
-208 c3 -5 1 -10 -4 -10 -6 0 -11 5 -11 10 0 6 2 10 4 10 3 0 8 -4 11 -10z
m313 -78 c2 -7 -3 -12 -12 -12 -9 0 -16 7 -16 16 0 17 22 14 28 -4z m-470 -10
c2 -7 -3 -12 -12 -12 -9 0 -16 7 -16 16 0 17 22 14 28 -4z m52 -12 c0 -5 -2
-10 -4 -10 -3 0 -8 5 -11 10 -3 6 -1 10 4 10 6 0 11 -4 11 -10z m70 -80 c0 -5
-7 -10 -15 -10 -8 0 -15 5 -15 10 0 6 7 10 15 10 8 0 15 -4 15 -10z m-520
-343 c21 -3 26 -10 32 -48 8 -56 10 -177 2 -206 -4 -13 -13 -23 -21 -23 -18 0
-85 34 -149 76 -44 29 -62 34 -137 40 -65 5 -91 12 -107 26 l-21 19 33 22 c18
12 35 33 38 46 10 42 85 62 205 56 55 -3 111 -7 125 -8z m1205 -445 c0 -18
-20 -15 -23 4 -3 10 1 15 10 12 7 -3 13 -10 13 -16z m33 -555 c-1 -40 -2 -44
-5 -17 -3 19 -8 39 -13 44 -11 11 -1 38 11 30 5 -3 8 -29 7 -57z m-188 -251
c0 -18 -28 17 -43 56 -9 20 -13 39 -10 42 6 6 53 -81 53 -98z m370 -201 c0 -8
-7 -15 -16 -15 -14 0 -14 3 -4 15 7 8 14 15 16 15 2 0 4 -7 4 -15z m-687 -150
l107 0 0 -53 c0 -37 -7 -67 -25 -100 -52 -99 -78 -106 -90 -25 -12 83 -32 93
-70 33 -32 -51 -46 -51 -43 -1 1 22 -4 46 -11 55 -11 13 -17 14 -40 2 -14 -8
-37 -27 -50 -42 -38 -44 -36 -13 4 54 19 33 35 68 35 77 0 13 6 15 38 8 20 -4
85 -8 145 -8z"/>
<path d="M920 2732 c-24 -7 -50 -45 -50 -74 0 -26 31 -58 56 -58 23 0 74 51
74 74 0 35 -47 69 -80 58z"/>
<path d="M752 1673 c2 -19 10 -29 23 -31 11 -2 27 -6 35 -9 41 -17 106 -31
113 -24 19 18 -10 41 -82 65 -43 14 -81 26 -85 26 -4 0 -6 -12 -4 -27z"/>
</g>
</svg>
