<?xml version="1.0" standalone="no"?>
<!DOCTYPE svg PUBLIC "-//W3C//DTD SVG 20010904//EN"
 "http://www.w3.org/TR/2001/REC-SVG-20010904/DTD/svg10.dtd">
<svg version="1.0" xmlns="http://www.w3.org/2000/svg"
 width="165.000000pt" height="331.000000pt" viewBox="0 0 165.000000 331.000000"
 preserveAspectRatio="xMidYMid meet">

<g transform="translate(0.000000,331.000000) scale(0.100000,-0.100000)"
fill="#000000" stroke="none">
<path d="M851 3248 c-94 -12 -182 -54 -261 -126 -56 -50 -150 -168 -150 -188
0 -5 -6 -20 -13 -34 -42 -81 -53 -304 -22 -455 30 -147 30 -144 2 -154 -22 -8
-33 -34 -90 -213 -105 -328 -135 -454 -137 -573 0 -38 -4 -107 -8 -153 -4 -45
-5 -88 -1 -94 4 -6 7 -102 7 -212 0 -111 5 -225 11 -255 6 -29 11 -83 11 -119
0 -55 -5 -72 -31 -115 -60 -98 -76 -177 -38 -197 11 -6 27 -10 37 -8 9 2 26
-7 37 -18 12 -12 41 -25 64 -29 37 -6 46 -4 64 16 12 13 27 32 32 43 6 11 25
23 43 27 42 8 82 46 133 124 28 43 38 67 34 85 -2 14 -7 88 -10 165 -3 77 -10
160 -16 185 -33 144 -34 276 -3 424 21 105 22 106 50 56 14 -25 40 -61 58 -80
19 -19 39 -45 45 -58 21 -40 41 -115 41 -154 0 -28 7 -42 30 -62 65 -54 144
-41 193 33 42 62 50 100 33 167 -30 121 -64 226 -79 242 -8 9 -17 28 -21 42
-50 175 -57 229 -33 249 8 6 14 32 15 58 0 27 8 73 16 103 49 183 56 212 51
221 -4 5 22 9 62 10 68 0 167 17 191 32 19 13 28 1 45 -60 35 -128 41 -231 28
-432 -11 -164 -10 -193 2 -218 8 -15 29 -66 45 -113 17 -47 42 -112 56 -145
49 -121 78 -445 54 -605 -10 -62 -17 -85 -28 -85 -8 0 -40 -24 -70 -54 -143
-137 -347 -187 -726 -175 -116 4 -219 4 -229 0 -28 -10 2 -36 43 -36 28 0 41
-7 65 -36 17 -20 54 -47 81 -61 28 -14 71 -41 95 -59 24 -19 49 -34 56 -34 7
0 24 -9 38 -20 14 -11 56 -25 97 -32 l72 -12 23 27 22 28 41 -16 c22 -9 51
-15 64 -13 19 2 23 9 24 38 0 32 2 35 27 32 21 -3 28 2 32 21 9 33 -13 65 -70
106 -25 18 -45 36 -45 40 0 5 12 11 28 13 15 3 36 9 46 13 17 7 18 5 13 -17
-6 -22 -1 -29 42 -56 89 -55 261 -66 310 -21 25 24 26 28 6 56 -14 20 -13 24
16 53 30 29 31 32 14 50 -16 18 -15 19 29 39 25 11 46 26 46 33 -1 31 -61 78
-98 78 -24 0 -24 1 -16 68 20 165 2 434 -42 607 -5 22 -3 25 19 25 34 0 75 57
90 125 14 70 0 143 -55 280 -61 150 -88 233 -98 300 -5 33 -18 89 -30 124 -11
35 -20 72 -20 83 0 22 -46 98 -60 98 -16 0 -12 36 6 50 18 16 188 19 247 6 33
-8 37 -6 37 11 0 10 -5 24 -12 31 -8 8 -8 15 0 25 9 11 2 34 -33 104 -24 50
-50 97 -57 104 -67 71 -76 87 -68 123 11 51 -27 229 -59 275 -10 14 -28 44
-39 66 -11 22 -39 61 -63 86 -37 39 -56 50 -119 69 -41 12 -88 26 -104 31 -34
10 -63 10 -165 -3z m397 -184 c-10 -10 -28 6 -28 24 0 15 1 15 17 -1 9 -9 14
-19 11 -23z m-108 -254 c30 -30 33 -61 14 -126 -35 -123 -31 -161 25 -231 23
-29 29 -32 63 -26 21 3 38 3 38 0 0 -3 -12 -23 -26 -44 -14 -21 -30 -48 -35
-60 -11 -30 -50 -30 -204 3 -66 14 -147 31 -180 37 l-59 12 -17 65 c-8 36 -21
90 -28 120 -7 30 -19 65 -27 77 -8 12 -14 28 -14 34 0 25 121 110 192 133 54
18 85 23 171 25 55 1 71 -3 87 -19z m270 -205 c0 -8 -4 -15 -10 -15 -5 0 -10
7 -10 15 0 8 5 15 10 15 6 0 10 -7 10 -15z m85 -149 l23 -66 -43 0 c-24 0 -50
-3 -59 -6 -11 -4 -16 -1 -16 10 0 9 -5 16 -12 16 -16 0 -58 41 -58 56 0 8 11
2 27 -12 30 -28 66 -28 71 -2 2 12 -6 21 -22 28 -29 11 -36 31 -8 23 10 -2 26
5 37 17 24 26 31 18 60 -64z m-125 44 c0 -5 -7 -10 -15 -10 -8 0 -15 5 -15 10
0 6 7 10 15 10 8 0 15 -4 15 -10z m-890 -95 c0 -8 -4 -15 -10 -15 -5 0 -10 7
-10 15 0 8 5 15 10 15 6 0 10 -7 10 -15z m258 -48 c2 -10 -3 -17 -12 -17 -10
0 -16 9 -16 21 0 24 23 21 28 -4z m-101 -83 c-3 -3 -12 -4 -19 -1 -8 3 -5 6 6
6 11 1 17 -2 13 -5z m413 -12 c0 -13 -12 -22 -22 -16 -10 6 -1 24 13 24 5 0 9
-4 9 -8z m-523 -24 c-3 -8 -6 -5 -6 6 -1 11 2 17 5 13 3 -3 4 -12 1 -19z m357
-77 c8 -12 -21 -34 -34 -26 -8 5 -8 11 1 21 13 16 25 18 33 5z m456 -276 c0
-14 -4 -25 -10 -25 -5 0 -10 11 -10 25 0 14 5 25 10 25 6 0 10 -11 10 -25z
m-810 11 c0 -3 -4 -8 -10 -11 -5 -3 -10 -1 -10 4 0 6 5 11 10 11 6 0 10 -2 10
-4z m900 -232 c0 -9 -5 -14 -12 -12 -18 6 -21 28 -4 28 9 0 16 -7 16 -16z
m-100 -75 c0 -27 -4 -49 -10 -49 -5 0 -10 25 -10 56 0 34 4 53 10 49 6 -3 10
-28 10 -56z m-853 -451 c-3 -8 -6 -5 -6 6 -1 11 2 17 5 13 3 -3 4 -12 1 -19z
m437 -13 c-6 -16 -24 -21 -24 -7 0 11 11 22 21 22 5 0 6 -7 3 -15z m-686 -150
c1 -19 -3 -35 -8 -35 -11 0 -13 30 -4 54 9 23 11 20 12 -19z m12 -70 c0 -8 -4
-15 -10 -15 -5 0 -10 7 -10 15 0 8 5 15 10 15 6 0 10 -7 10 -15z m287 -237
c-3 -8 -6 -5 -6 6 -1 11 2 17 5 13 3 -3 4 -12 1 -19z m993 -165 c10 -9 -27
-23 -62 -23 -47 0 -63 -34 -29 -61 37 -30 26 -43 -49 -51 -17 -2 -25 -9 -25
-22 0 -19 7 -25 59 -45 44 -18 19 -32 -55 -33 -62 0 -89 8 -179 57 -37 20 -34
29 15 44 25 7 63 27 86 45 125 96 141 105 189 99 25 -3 47 -8 50 -10z m-1340
-98 c0 -9 -6 -12 -15 -9 -8 4 -15 10 -15 15 0 5 7 9 15 9 8 0 15 -7 15 -15z
m75 -5 c3 -5 -3 -10 -14 -10 -12 0 -21 5 -21 10 0 6 6 10 14 10 8 0 18 -4 21
-10z m428 -98 c53 -4 132 -3 183 4 87 10 90 10 111 -13 12 -13 27 -23 33 -23
17 0 61 -36 53 -44 -3 -3 -12 -1 -19 5 -21 17 -44 3 -44 -26 0 -17 8 -29 25
-37 14 -6 25 -17 25 -25 0 -15 -2 -16 -32 -4 -13 5 -49 17 -81 26 -47 14 -60
15 -73 4 -14 -11 -13 -15 8 -30 72 -55 -78 -14 -161 43 -31 22 -84 57 -118 79
-69 44 -81 64 -33 54 17 -4 72 -10 123 -13z"/>
<path d="M924 2657 c-35 -31 -38 -82 -5 -109 13 -10 29 -18 36 -18 17 0 76 41
89 62 19 32 -31 88 -79 88 -8 0 -26 -11 -41 -23z"/>
<path d="M1090 1557 c-31 -15 -45 -29 -45 -42 0 -16 6 -20 28 -18 46 3 102 35
102 58 0 28 -31 29 -85 2z"/>
</g>
</svg>
